<?xml version="1.0" encoding="iso-8859-1"?>
<!-- Generator: Adobe Illustrator 19.0.0, SVG Export Plug-In . SVG Version: 6.00 Build 0)  -->
<svg version="1.1" id="Capa_1"
	xmlns="http://www.w3.org/2000/svg"
	xmlns:xlink="http://www.w3.org/1999/xlink" x="0px" y="0px" viewBox="0 -40 512 512" style="enable-background:new 0 0 512 512;" xml:space="preserve">
	<path style="fill:#4DA6FF;" d="M407,83.5H256v270h151c57.891,0,105-60.557,105-135S464.891,83.5,407,83.5z" />
	<path style="fill:#4596E6;" d="M256,353.5h151c57.891,0,105-60.557,105-135H256V353.5z" />
	<path style="fill:#50B9FF;" d="M256,83.5H105v270h151c57.891,0,105-60.557,105-135S313.891,83.5,256,83.5z" />
	<path style="fill:#48A7E6;" d="M105,353.5h151c57.891,0,105-60.557,105-135H105V353.5z" />
	<path style="fill:#5AF1FF;" d="M105,353.5c-57.891,0-105-60.557-105-135s47.109-135,105-135s105,60.557,105,135  S162.891,353.5,105,353.5z" />
	<path style="fill:#51DAE6;" d="M105,353.5c57.891,0,105-60.557,105-135H0C0,292.943,47.109,353.5,105,353.5z" />
	<path style="fill:#4596E6;" d="M105,323.5c-18.538,0-36.483-9.945-50.529-28.003C38.69,275.209,30,247.865,30,218.5  s8.69-56.709,24.471-76.997C68.517,123.445,86.462,113.5,105,113.5s36.483,9.945,50.529,28.003  C171.31,161.791,180,189.135,180,218.5s-8.69,56.709-24.471,76.997C141.483,313.555,123.538,323.5,105,323.5z" />
	<path style="fill:#3D85CC;" d="M105,323.5c18.538,0,36.483-9.945,50.529-28.003C171.31,275.209,180,247.865,180,218.5H30  c0,29.365,8.69,56.709,24.471,76.997C68.517,313.555,86.462,323.5,105,323.5z" />
</svg>
